Coordinates
version=1
nRows=13
nColumns=40
inDegrees=yes

Units are S.I. units (second, meters, Newtons, ...)
Angles are in degrees.

endheader
time	pelvis_tilt	pelvis_list	pelvis_rotation	pelvis_tx	pelvis_ty	pelvis_tz	hip_flexion_r	hip_adduction_r	hip_rotation_r	knee_angle_r	knee_angle_r_beta	ankle_angle_r	subtalar_angle_r	mtp_angle_r	hip_flexion_l	hip_adduction_l	hip_rotation_l	knee_angle_l	knee_angle_l_beta	ankle_angle_l	subtalar_angle_l	mtp_angle_l	lumbar_extension	lumbar_bending	lumbar_rotation	arm_flex_r	arm_add_r	arm_rot_r	elbow_flex_r	pro_sup_r	wrist_flex_r	wrist_dev_r	arm_flex_l	arm_add_l	arm_rot_l	elbow_flex_l	pro_sup_l	wrist_flex_l	wrist_dev_l
     47.15000000	     -2.68114021	     -3.72524283	     -4.23436780	      1.02008562	      0.93279332	      0.43226103	     22.83310522	     -2.08560381	    -12.91333385	     12.08931621	     12.08931621	      1.19382856	      5.88165326	      4.95753613	      2.84779710	     -4.51543706	    -14.14121016	     14.57984181	     14.57984181	     15.38572141	     -5.52655672	     -5.28102778	    -10.45996998	      3.97304623	      1.08921943	    -11.32502489	    -11.89169376	     -4.10922381	     30.07648734	     46.65785329	      0.00000000	      0.00000000	     15.93731995	    -15.76208130	    -11.80993434	     65.71781980	     47.15257961	      0.00000000	      0.00000000
     47.16357143	     -2.57104327	     -3.59434962	     -4.25999803	      1.02110292	      0.93230958	      0.43388255	     22.47461468	     -2.09163454	    -13.12183679	     12.60189028	     12.60189028	      1.60471983	      5.17003217	      4.91243878	      1.87282260	     -4.36895564	    -14.42422749	     13.82708400	     13.82708400	     15.52821658	     -4.84029007	     -5.50626652	    -10.44693873	      3.87870315	      0.87642294	    -10.77373370	    -11.94396816	     -4.14505131	     30.49839537	     46.63977135	      0.00000000	      0.00000000	     16.07567204	    -15.73180294	    -12.08106407	     65.54919061	     47.17507082	      0.00000000	      0.00000000
     47.17714286	     -2.57529166	     -3.48351714	     -4.25065281	      1.02227045	      0.93150727	      0.43562634	     22.24780156	     -2.10234706	    -13.15000737	     13.43856502	     13.43856502	      1.92149611	      4.13366823	      4.45117882	      1.19503855	     -4.29744007	    -14.58194713	     13.42232242	     13.42232242	     15.75081100	     -4.46214564	     -5.70893784	    -10.26399844	      3.83393652	      0.75209992	    -10.27843687	    -12.00167250	     -4.16533695	     30.86749096	     46.62132832	      0.00000000	      0.00000000	     16.09683191	    -15.66353934	    -12.30787073	     65.30063053	     47.19235826	      0.00000000	      0.00000000
     47.19071429	     -2.54623647	     -3.39331164	     -4.20384921	      1.02359897	      0.93063249	      0.43748988	     22.01487170	     -2.10246896	    -12.91523937	     14.51870647	     14.51870647	      2.09936552	      2.73492078	      3.44128435	      0.50240920	     -4.25799719	    -14.68898460	     13.07619726	     13.07619726	     16.03147953	     -4.11929289	     -5.80644677	    -10.06257216	      3.81635616	      0.58881805	     -9.74068318	    -12.09189457	     -4.18037795	     31.28223088	     46.59633483	      0.00000000	      0.00000000	     16.06582483	    -15.60261786	    -12.52527825	     64.89216388	     47.20786037	      0.00000000	      0.00000000
     47.20428571	     -2.41727847	     -3.33466820	     -4.11048308	      1.02516871	      0.92977179	      0.43941341	     21.70705111	     -2.13674646	    -12.74524793	     15.80384368	     15.80384368	      2.51998411	      1.66927630	      2.66710578	     -0.24926219	     -4.25863241	    -14.64429918	     12.85730458	     12.85730458	     16.41082147	     -3.89987905	     -5.80688342	     -9.98345241	      3.88088934	      0.47629175	     -9.09543357	    -12.21508414	     -4.21778947	     31.61738607	     46.58485621	      0.00000000	      0.00000000	     15.97774236	    -15.60107104	    -12.54333579	     64.54691310	     47.20549860	      0.00000000	      0.00000000
     47.21785714	     -2.34359258	     -3.29687219	     -3.96579764	      1.02684972	      0.92888058	      0.44140731	     21.40897167	     -2.13969548	    -12.52276327	     16.97274676	     16.97274676	      2.87570807	      0.63040389	      1.97961677	     -0.89752189	     -4.31349173	    -14.61244381	     12.71615398	     12.71615398	     16.75280119	     -3.74264525	     -5.71762651	     -9.79575544	      3.95048062	      0.32622012	     -8.41737137	    -12.32145576	     -4.26258588	     31.96607975	     46.57471169	      0.00000000	      0.00000000	     15.79391764	    -15.50325488	    -12.49701048	     64.14377798	     47.19603521	      0.00000000	      0.00000000
     47.23142857	     -2.28135464	     -3.16712063	     -3.84461840	      1.02859946	      0.92792629	      0.44367443	     21.24183702	     -2.16983913	    -11.92316507	     18.23955304	     18.23955304	      3.23391434	     -0.77544956	      1.02395807	     -1.48672090	     -4.30207128	    -14.55890435	     12.67931432	     12.67931432	     17.19581853	     -3.52119491	     -5.40261375	     -9.55606343	      3.85730177	      0.06435231	     -7.63056291	    -12.39923893	     -4.32896123	     32.43988578	     46.55865125	      0.00000000	      0.00000000	     15.54272539	    -15.57384957	    -12.49079197	     63.43221435	     47.18551556	      0.00000000	      0.00000000
     47.24500000	     -2.20442848	     -3.17114123	     -3.66980976	      1.03045581	      0.92716893	      0.44609673	     20.80433381	     -1.97330485	    -11.28902438	     18.86060422	     18.86060422	      2.74495529	     -2.42771180	     -1.91946094	     -1.83186901	     -4.57161212	    -14.69637608	     13.26633481	     13.26633481	     18.58808644	     -2.72362480	     -3.22116837	     -9.33802780	      3.98251730	      0.10991259	     -7.03330466	    -12.51536057	     -4.43824217	     33.13343237	     46.49014558	      0.00000000	      0.00000000	     15.61551360	    -15.30028561	    -12.43336429	     62.06110450	     47.17587156	      0.00000000	      0.00000000
     47.25857143	     -2.07260320	     -3.21690739	     -3.47876376	      1.03230691	      0.92659915	      0.44855813	     20.47483082	     -1.84222891	    -11.03673683	     19.77778480	     19.77778480	      3.35226476	     -3.13002354	     -2.30517001	     -2.25700016	     -4.83623790	    -14.48607602	     13.68184839	     13.68184839	     18.91282040	     -2.87405747	     -3.10234617	     -9.22858869	      4.12839820	     -0.04556899	     -6.12758714	    -12.66363595	     -4.53509012	     33.56193325	     46.48007029	      0.00000000	      0.00000000	     15.20059073	    -15.30484469	    -12.32672731	     61.49060769	     47.15771041	      0.00000000	      0.00000000
     47.27214286	     -1.92808892	     -3.32040137	     -3.29908586	      1.03413230	      0.92631820	      0.45121557	     20.08176073	     -1.61863656	    -10.79761281	     20.47652777	     20.47652777	      3.93373756	     -3.68027590	     -2.63363033	     -2.57336329	     -5.21155012	    -14.21915768	     14.32788408	     14.32788408	     19.18941387	     -3.12677090	     -2.94513237	     -9.15159962	      4.32649958	     -0.09071063	     -5.16828473	    -12.83183879	     -4.61711072	     33.97948642	     46.47177248	      0.00000000	      0.00000000	     14.74569774	    -15.14124241	    -12.20254667	     60.85555866	     47.13624085	      0.00000000	      0.00000000
     47.28571429	     -1.92054398	     -3.42092263	     -3.10011058	      1.03575337	      0.92611328	      0.45409027	     19.79614166	     -1.28819320	    -10.32804165	     20.93817323	     20.93817323	      4.31471251	     -4.81742292	     -3.01220754	     -2.34902419	     -5.73222789	    -13.98345302	     15.75711363	     15.75711363	     20.17907328	     -3.21676509	     -1.13424791	     -8.88248282	      4.54557235	     -0.15952489	     -4.13393590	    -12.93246284	     -4.73294475	     34.45776329	     46.43614517	      0.00000000	      0.00000000	     14.68541582	    -14.96721098	    -12.09013861	     58.78413573	     47.10463107	      0.00000000	      0.00000000
     47.29928571	     -1.65454577	     -3.46043614	     -2.99051802	      1.03754174	      0.92657274	      0.45697967	     19.17334194	     -1.11438975	    -10.20467789	     21.27509360	     21.27509360	      4.85902418	     -4.88497140	     -3.26353391	     -2.59920791	     -6.09331142	    -13.75509329	     16.74273549	     16.74273549	     20.16162555	     -3.63647854	     -1.17590028	     -8.94950412	      4.64543640	      0.06748620	     -3.11812031	    -13.09483857	     -4.79123902	     34.85841126	     46.42962913	      0.00000000	      0.00000000	     14.09291956	    -14.49549258	    -11.90454985	     58.34412727	     47.07863181	      0.00000000	      0.00000000
     47.31285714	     -1.64783508	     -3.72837788	     -2.69590214	      1.03877854	      0.92665746	      0.46008122	     18.75579250	     -0.68731148	    -10.42610485	     21.41776443	     21.41776443	      5.38610721	     -5.16029077	     -3.48283248	     -1.79686602	     -6.92966076	    -13.06068683	     19.07941412	     19.07941412	     20.22868507	     -4.69717781	     -1.30823000	     -8.80956995	      4.98836739	     -0.26532376	     -1.80444969	    -13.20287946	     -4.89670901	     35.50926324	     46.41371638	      0.00000000	      0.00000000	     13.56443285	    -14.63293379	    -11.77242638	     57.09787444	     47.04832224	      0.00000000	      0.00000000
